<?xml version="1.0" encoding="UTF-8"?>
<svg version="1.1" xmlns="http://www.w3.org/2000/svg" width="200" height="200">
<path d="M0 0 C66 0 132 0 200 0 C200 66 200 132 200 200 C134 200 68 200 0 200 C0 134 0 68 0 0 Z " fill="#F24A1F" transform="translate(0,0)"/>
<path d="M0 0 C26.4 0 52.8 0 80 0 C80 36 80 36 72.625 45.25 C65.95238095 50 65.95238095 50 63 50 C63 50.66 63 51.32 63 52 C59.53322756 54.31118163 58.23668119 54.24417896 54.15161133 54.22705078 C52.35008354 54.22682419 52.35008354 54.22682419 50.51216125 54.22659302 C49.21521835 54.21627045 47.91827545 54.20594788 46.58203125 54.1953125 C45.24110627 54.19158155 43.90017856 54.18873497 42.55924988 54.18673706 C39.03285167 54.17910699 35.50661866 54.15946403 31.98028564 54.1373291 C28.38076045 54.1168571 24.78120772 54.10762284 21.18164062 54.09765625 C14.12094794 54.07727907 7.06070866 54.03813164 0 54 C0 36.18 0 18.36 0 0 Z " fill="#192863" transform="translate(72,84)"/>
<path d="M0 0 C19.8 0 39.6 0 60 0 C60 7.59 60 15.18 60 23 C41.52 23 23.04 23 4 23 C4 33.56 4 44.12 4 55 C-3.92 55 -11.84 55 -20 55 C-20.16134323 49.9983599 -20.30042302 45.00583858 -20.38452148 40.00366211 C-20.4195882 38.30510783 -20.46725799 36.60676282 -20.52807617 34.90893555 C-21.01958626 20.82861707 -21.01958626 20.82861707 -18.56005859 16.41748047 C-16.80471846 14.64896705 -15.09990504 13.32981718 -13 12 C-12.23171875 11.30390625 -11.4634375 10.6078125 -10.671875 9.890625 C-9.72054687 9.07851562 -9.72054687 9.07851562 -8.75 8.25 C-6.87912655 6.64853233 -5.08248388 5.08728877 -3.390625 3.296875 C-2 2 -2 2 0 2 C0 1.34 0 0.68 0 0 Z " fill="#FEFAF8" transform="translate(68,61)"/>
<path d="M0 0 C18.48 0 36.96 0 56 0 C56 10.56 56 21.12 56 32 C37.52 32 19.04 32 0 32 C0 21.44 0 10.88 0 0 Z " fill="#F04B21" transform="translate(72,84)"/>
<path d="M0 0 C7.92 0 15.84 0 24 0 C24 6.93 24 13.86 24 21 C23.01 21 22.02 21 21 21 C20.34 18.03 19.68 15.06 19 12 C18.67 12 18.34 12 18 12 C18 9.03 18 6.06 18 3 C12.39 2.67 6.78 2.34 1 2 C0.67 1.34 0.34 0.68 0 0 Z " fill="#EF4B24" transform="translate(48,117)"/>
<path d="M0 0 C0.66 0.33 1.32 0.66 2 1 C0.33333333 2.66666667 -1.33333333 4.33333333 -3 6 C-4.1446875 7.175625 -4.1446875 7.175625 -5.3125 8.375 C-8 11 -8 11 -9.97729492 12.17456055 C-12.6163429 13.91021066 -14.20427347 15.37830429 -16 18 C-17.15147715 23.81599954 -17.07627343 29.52873082 -17 35.4375 C-17.00809956 37.04364212 -17.01978385 38.6497704 -17.03515625 40.25585938 C-17.07155969 44.17327367 -17.03406797 48.0800538 -17 52 C-9.74 52 -2.48 52 5 52 C5 41.77 5 31.54 5 21 C5.33 21 5.66 21 6 21 C6 31.56 6 42.12 6 53 C-1.92 53 -9.84 53 -18 53 C-18.16134323 47.9983599 -18.30042302 43.00583858 -18.38452148 38.00366211 C-18.4195882 36.30510783 -18.46725799 34.60676282 -18.52807617 32.90893555 C-19.01958626 18.82861707 -19.01958626 18.82861707 -16.56005859 14.41748047 C-14.80471846 12.64896705 -13.09990504 11.32981718 -11 10 C-10.23171875 9.30390625 -9.4634375 8.6078125 -8.671875 7.890625 C-8.03765625 7.34921875 -7.4034375 6.8078125 -6.75 6.25 C-4.40571691 4.24329367 -2.15572863 2.2089565 0 0 Z " fill="#FEE6DB" transform="translate(66,63)"/>
<path d="M0 0 C3.01868973 3.01868973 2.4663688 6.56900322 2.625 10.625 C2.74875 13.38875 2.8725 16.1525 3 19 C10.26 19 17.52 19 25 19 C25 32.2 25 45.4 25 59 C23.68 59.66 22.36 60.32 21 61 C21.66 60.01 22.32 59.02 23 58 C23.24073135 55.24781023 23.37282688 52.58782534 23.4140625 49.83203125 C23.43342865 49.03721848 23.4527948 48.2424057 23.4727478 47.42350769 C23.53249442 44.88661405 23.57890883 42.34967491 23.625 39.8125 C23.66318435 38.09177716 23.70223635 36.37107335 23.7421875 34.65039062 C23.83982449 30.43369311 23.91943013 26.21719649 24 22 C16.08 22 8.16 22 0 22 C0 14.74 0 7.48 0 0 Z " fill="#C34F3B" transform="translate(128,62)"/>
<path d="M0 0 C0.66 0 1.32 0 2 0 C0.84826645 2.46800047 -0.04783565 4.04783565 -2 6 C-4.55630493 6.24050903 -4.55630493 6.24050903 -7.82666016 6.22705078 C-9.65833237 6.22682419 -9.65833237 6.22682419 -11.52700806 6.22659302 C-12.86436118 6.21637903 -14.20171265 6.20594702 -15.5390625 6.1953125 C-16.90383701 6.1915828 -18.26861419 6.18873563 -19.63339233 6.18673706 C-23.22720723 6.17909714 -26.82086073 6.15944572 -30.41461182 6.1373291 C-34.08107317 6.11687832 -37.74756057 6.107737 -41.4140625 6.09765625 C-48.60944862 6.07620003 -55.8047017 6.04205992 -63 6 C-63 5.34 -63 4.68 -63 4 C-62.25497726 3.98969254 -61.50995453 3.97938507 -60.74235535 3.96876526 C-53.72361117 3.87081592 -46.70495195 3.76830508 -39.68635082 3.66066074 C-36.0779594 3.60548 -32.46955979 3.5520678 -28.86108398 3.50268555 C-25.37916857 3.45497039 -21.89735081 3.40262508 -18.41555214 3.34705925 C-16.43969447 3.31673963 -14.46376498 3.29122425 -12.48783875 3.26576233 C-11.28682022 3.24581711 -10.0858017 3.22587189 -8.84838867 3.20532227 C-7.78915695 3.18977798 -6.72992523 3.1742337 -5.63859558 3.15821838 C-2.89184665 3.10776932 -2.89184665 3.10776932 0 2 C0 1.34 0 0.68 0 0 Z " fill="#B94838" transform="translate(135,134)"/>
<path d="M0 0 C0.99 0 1.98 0 3 0 C3 11.88 3 23.76 3 36 C0 33 0 33 -0.34057617 29.63012695 C-0.34010247 28.2494206 -0.32322783 26.86865607 -0.29296875 25.48828125 C-0.28872391 24.76005661 -0.28447906 24.03183197 -0.28010559 23.28153992 C-0.26332733 20.95814873 -0.22567855 18.6356285 -0.1875 16.3125 C-0.17245197 14.73634066 -0.15876377 13.16016771 -0.14648438 11.58398438 C-0.11342685 7.72232123 -0.06165194 3.86130822 0 0 Z " fill="#ED6644" transform="translate(45,80)"/>
<path d="M0 0 C0.66 0 1.32 0 2 0 C2.21684869 4.52002296 2.41374327 9.04030365 2.59204102 13.56201172 C2.65554235 15.10066042 2.72452973 16.63909276 2.79907227 18.17724609 C2.90516922 20.38605641 2.99162696 22.59488916 3.07421875 24.8046875 C3.1302552 25.83914505 3.1302552 25.83914505 3.18742371 26.89450073 C3.2487793 28.83544922 3.2487793 28.83544922 3 32 C2.01 32.66 1.02 33.32 0 34 C0 22.78 0 11.56 0 0 Z " fill="#E44F2D" transform="translate(153,84)"/>
<path d="M0 0 C7.92 0 15.84 0 24 0 C24 6.93 24 13.86 24 21 C23.34 21 22.68 21 22 21 C21.80578562 18.04196565 21.61933814 15.08379837 21.4375 12.125 C21.38142578 11.28324219 21.32535156 10.44148438 21.26757812 9.57421875 C21.21923828 8.76855469 21.17089844 7.96289062 21.12109375 7.1328125 C21.0739624 6.38918457 21.02683105 5.64555664 20.97827148 4.87939453 C21 3 21 3 22 1 C14.74 1 7.48 1 0 1 C0 0.67 0 0.34 0 0 Z " fill="#D04C31" transform="translate(48,117)"/>
<path d="M0 0 C0.33 1.98 0.66 3.96 1 6 C0.34 6 -0.32 6 -1 6 C-1 6.66 -1 7.32 -1 8 C-1.99 8.33 -2.98 8.66 -4 9 C-4.66 8.67 -5.32 8.34 -6 8 C-6 7.34 -6 6.68 -6 6 C-5.34 6 -4.68 6 -4 6 C-4 5.34 -4 4.68 -4 4 C-4.66 4 -5.32 4 -6 4 C-6 3.34 -6 2.68 -6 2 C-1.125 0 -1.125 0 0 0 Z " fill="#1F2760" transform="translate(136,128)"/>
<path d="M0 0 C1.32 0.66 2.64 1.32 4 2 C1.36 4.31 -1.28 6.62 -4 9 C-4.33 7.68 -4.66 6.36 -5 5 C-4.360625 4.731875 -3.72125 4.46375 -3.0625 4.1875 C-0.66868314 3.11332248 -0.66868314 3.11332248 0 0 Z " fill="#302653" transform="translate(145,121)"/>
</svg>
